<?xml version="1.0" encoding="UTF-8"?>
<svg width="1400px" height="1400px" viewBox="0 0 1400 1400" version="1.1" xmlns="http://www.w3.org/2000/svg" xmlns:xlink="http://www.w3.org/1999/xlink">
    <title>Logo color</title>
    <g id="Logo-color" stroke="none" stroke-width="1" fill="none" fill-rule="evenodd">
        <path d="M271.72,834.932 C279.653333,837.198667 289.966667,837.312 302.66,835.272 C315.353333,833.232 325.44,829.378667 332.92,823.712 C340.626667,817.592 344.48,809.998667 344.48,800.932 C344.48,792.772 341.59,786.142 335.81,781.042 C330.03,775.942 323.74,773.392 316.94,773.392 C311.273333,773.392 306.173333,774.922 301.64,777.982 C297.106667,781.042 293.706667,785.065333 291.44,790.052 C290.306667,792.772 289.626667,795.662 289.4,798.722 C289.173333,801.782 289.286667,805.352 289.74,809.432 C290.193333,813.512 290.42,816.232 290.42,817.592 C290.42,825.978667 287.133333,830.172 280.56,830.172 C278.293333,830.172 276.14,829.378667 274.1,827.792 C272.06,826.205333 270.19,823.768667 268.49,820.482 C266.79,817.195333 265.203333,813.625333 263.73,809.772 C262.256667,805.918667 260.84,801.272 259.48,795.832 C258.12,790.392 256.986667,785.122 256.08,780.022 C255.173333,774.922 254.21,769.085333 253.19,762.512 C252.17,755.938667 251.32,750.045333 250.64,744.832 C249.96,739.618667 249.28,733.725333 248.6,727.152 L248.6,727.152 L243.5,683.292 C238.513333,651.332 217.66,635.238667 180.94,635.012 C178.673333,635.012 176.293333,635.125333 173.8,635.352 C157.026667,636.258667 144.673333,640.735333 136.74,648.782 C128.806667,656.828667 126.313333,666.065333 129.26,676.492 C130.166667,680.345333 132.036667,683.518667 134.87,686.012 C137.703333,688.505333 140.876667,689.978667 144.39,690.432 C147.903333,690.885333 151.303333,690.772 154.59,690.092 C157.876667,689.412 160.823333,687.882 163.43,685.502 C166.036667,683.122 167.623333,680.345333 168.19,677.172 C168.756667,673.998667 168.416667,671.165333 167.17,668.672 C165.923333,666.178667 164.393333,664.365333 162.58,663.232 C160.766667,662.098667 159.123333,660.625333 157.65,658.812 C156.176667,656.998667 155.44,654.958667 155.44,652.692 C155.44,651.105333 155.723333,649.632 156.29,648.272 C156.856667,646.912 157.65,645.608667 158.67,644.362 C159.69,643.115333 161.163333,642.152 163.09,641.472 C165.016667,640.792 167.34,640.452 170.06,640.452 C174.14,640.452 177.766667,641.528667 180.94,643.682 C184.113333,645.835333 186.606667,648.668667 188.42,652.182 C190.233333,655.695333 191.65,659.095333 192.67,662.382 C193.69,665.668667 194.313333,669.012 194.54,672.412 C195.22,677.625333 194.936667,681.705333 193.69,684.652 C192.443333,687.598667 189.78,689.978667 185.7,691.792 C182.3,693.378667 177.256667,694.682 170.57,695.702 C163.883333,696.722 157.65,697.798667 151.87,698.932 C146.09,700.065333 140.366667,701.765333 134.7,704.032 C129.033333,706.298667 124.5,710.038667 121.1,715.252 C117.7,720.465333 116,727.038667 116,734.972 C116,743.132 118.323333,749.818667 122.97,755.032 C127.616667,760.245333 133.283333,763.872 139.97,765.912 C146.656667,767.952 154.08,768.972 162.24,768.972 C167.906667,768.972 173.176667,768.405333 178.05,767.272 C182.923333,766.138667 186.946667,764.778667 190.12,763.192 C193.293333,761.605333 196.07,759.962 198.45,758.262 C200.83,756.562 202.53,755.145333 203.55,754.012 C203.946667,753.571259 204.266204,753.216218 204.508611,752.946877 L204.6975,752.737 C204.9525,752.453667 205.08,752.312 205.08,752.312 C216.186667,800.365333 238.4,827.905333 271.72,834.932 Z M197.6,752.652 C191.933333,757.638667 184.906667,758.545333 176.52,755.372 C166.093333,751.292 160.88,742.905333 160.88,730.212 C160.88,727.492 161.163333,724.942 161.73,722.562 C162.296667,720.182 163.203333,718.028667 164.45,716.102 C165.696667,714.175333 166.886667,712.475333 168.02,711.002 C169.153333,709.528667 170.74,708.055333 172.78,706.582 C174.82,705.108667 176.463333,703.975333 177.71,703.182 C178.956667,702.388667 180.713333,701.368667 182.98,700.122 C185.246667,698.875333 186.833333,697.912 187.74,697.232 C191.366667,695.418667 194.313333,692.925333 196.58,689.752 L196.58,689.752 L202.36,740.072 C203.04,745.285333 201.453333,749.478667 197.6,752.652 Z M292.32,768.972 C301.386667,768.972 309.66,765.912 317.14,759.792 C324.62,753.672 330.286667,746.192 334.14,737.352 C334.593333,736.445333 334.593333,735.595333 334.14,734.802 C333.686667,734.008667 333.006667,733.612 332.1,733.612 C330.966667,733.612 330.173333,734.178667 329.72,735.312 C328.36,738.485333 326.32,741.318667 323.6,743.812 C320.88,746.305333 318.16,747.552 315.44,747.552 C308.186667,747.778667 304.56,739.052 304.56,721.372 L304.56,721.372 L304.56,647.592 L328.02,647.592 C329.833333,647.592 330.74,646.742 330.74,645.042 C330.74,643.342 329.833333,642.492 328.02,642.492 L328.02,642.492 L304.56,642.492 L304.56,590.472 C304.56,588.885333 303.88,587.978667 302.52,587.752 C301.16,587.525333 300.253333,588.092 299.8,589.452 C296.626667,600.105333 288.296667,611.042 274.81,622.262 C261.323333,633.482 249.82,640.112 240.3,642.152 C238.486667,642.378667 237.58,643.172 237.58,644.532 C237.58,645.892 238.6,646.798667 240.64,647.252 L240.64,647.252 L247.44,647.252 C248.8,647.252 250.33,647.535333 252.03,648.102 C253.73,648.668667 254.75,649.235333 255.09,649.802 C255.43,650.368667 255.883333,651.672 256.45,653.712 C257.016667,655.752 257.3,657.792 257.3,659.832 L257.3,659.832 L257.3,669.012 L256.96,721.372 C256.96,738.372 259.906667,750.555333 265.8,757.922 C271.693333,765.288667 280.533333,768.972 292.32,768.972 Z M387.52,768.972 C406.106667,768.972 421.916667,762.455333 434.95,749.422 C447.983333,736.388667 454.5,720.692 454.5,702.332 C454.5,683.745333 447.983333,667.935333 434.95,654.902 C421.916667,641.868667 406.106667,635.352 387.52,635.352 C369.16,635.352 353.463333,641.868667 340.43,654.902 C327.396667,667.935333 320.88,683.745333 320.88,702.332 C320.88,720.692 327.396667,736.388667 340.43,749.422 C353.463333,762.455333 369.16,768.972 387.52,768.972 Z M403.84,761.832 C397.266667,763.645333 390.636667,759.395333 383.95,749.082 C377.263333,738.768667 371.54,725.112 366.78,708.112 C362.246667,691.792 360.263333,677.228667 360.83,664.422 C361.396667,651.615333 364.966667,644.305333 371.54,642.492 L371.54,642.492 L374.26,642.492 C380.38,642.265333 386.556667,647.252 392.79,657.452 C399.023333,667.652 404.293333,680.685333 408.6,696.552 C413.133333,712.872 415.116667,727.378667 414.55,740.072 C413.983333,752.765333 410.413333,760.018667 403.84,761.832 Z M521.82,768.972 C541.766667,769.198667 555.593333,764.098667 563.3,753.672 C569.193333,763.872 580.3,768.972 596.62,768.972 C606.366667,768.972 616.226667,766.252 626.2,760.812 C627.333333,760.132 627.73,759.168667 627.39,757.922 C627.05,756.675333 626.2,756.052 624.84,756.052 C624.698333,756.052 624.313177,756.074135 623.684531,756.118406 L623.278125,756.147625 C622.987708,756.168875 622.658333,756.193667 622.29,756.222 C620.816667,756.335333 619.853333,756.278667 619.4,756.052 C614.866667,755.145333 611.693333,751.518667 609.88,745.172 C608.52,739.958667 607.84,733.158667 607.84,724.772 L607.84,724.772 L607.84,638.072 C607.84,636.258667 606.933333,635.352 605.12,635.352 C604.44,635.352 603.873333,635.578667 603.42,636.032 C601.833333,637.392 599.793333,638.922 597.3,640.622 C594.806667,642.322 590.84,644.645333 585.4,647.592 C579.96,650.538667 573.556667,653.088667 566.19,655.242 C558.823333,657.395333 551.286667,658.585333 543.58,658.812 C541.766667,658.812 540.86,659.605333 540.86,661.192 C540.86,662.552 541.88,663.458667 543.92,663.912 C547.773333,664.592 550.946667,666.348667 553.44,669.182 C555.933333,672.015333 557.69,675.812 558.71,680.572 C559.73,685.332 560.24,691.338667 560.24,698.592 L560.24,698.592 L560.24,717.292 C560.24,728.398667 558.086667,738.598667 553.78,747.892 C549.473333,757.185333 543.693333,761.945333 536.44,762.172 C528.733333,762.172 523.18,758.318667 519.78,750.612 C516.38,742.905333 514.68,733.045333 514.68,721.032 L514.68,721.032 L514.68,638.072 C514.68,636.258667 513.773333,635.352 511.96,635.352 C511.28,635.352 510.713333,635.578667 510.26,636.032 C507.766667,638.072 504.65,640.338667 500.91,642.832 C497.17,645.325333 490.313333,648.498667 480.34,652.352 C470.366667,656.205333 460.393333,658.358667 450.42,658.812 C448.606667,658.812 447.7,659.605333 447.7,661.192 C447.7,662.552 448.72,663.458667 450.76,663.912 C456.653333,665.045333 460.846667,668.388667 463.34,673.942 C465.833333,679.495333 467.08,687.712 467.08,698.592 L467.08,698.592 L467.08,721.032 C467.08,736.218667 472.18,748.005333 482.38,756.392 C492.58,764.778667 505.726667,768.972 521.82,768.972 Z M746.3,769.312 C758.313333,769.312 769.08,766.478667 778.6,760.812 C779.733333,760.132 780.186667,759.168667 779.96,757.922 C779.733333,756.675333 778.94,756.052 777.58,756.052 C777.126667,756.052 776.163333,756.108667 774.69,756.222 C773.216667,756.335333 772.366667,756.278667 772.14,756.052 C764.206667,754.692 758.766667,745.058667 755.82,727.152 L755.82,727.152 L750.72,683.292 C745.28,649.292 722.046667,633.312 681.02,635.352 C664.246667,636.258667 651.893333,640.735333 643.96,648.782 C636.026667,656.828667 633.533333,666.065333 636.48,676.492 C637.386667,680.345333 639.256667,683.518667 642.09,686.012 C644.923333,688.505333 648.096667,689.978667 651.61,690.432 C655.123333,690.885333 658.523333,690.772 661.81,690.092 C665.096667,689.412 668.043333,687.882 670.65,685.502 C673.256667,683.122 674.843333,680.345333 675.41,677.172 C675.976667,673.998667 675.636667,671.165333 674.39,668.672 C673.143333,666.178667 671.613333,664.365333 669.8,663.232 C667.986667,662.098667 666.343333,660.625333 664.87,658.812 C663.396667,656.998667 662.66,654.958667 662.66,652.692 C662.66,649.292 663.85,646.402 666.23,644.022 C668.61,641.642 672.293333,640.452 677.28,640.452 C682.493333,640.452 687.026667,642.435333 690.88,646.402 C694.733333,650.368667 697.396667,654.505333 698.87,658.812 C700.343333,663.118667 701.306667,667.652 701.76,672.412 C702.44,677.625333 702.156667,681.705333 700.91,684.652 C699.663333,687.598667 697,689.978667 692.92,691.792 C689.52,693.378667 684.476667,694.682 677.79,695.702 C671.103333,696.722 664.87,697.798667 659.09,698.932 C653.31,700.065333 647.586667,701.765333 641.92,704.032 C636.253333,706.298667 631.72,710.038667 628.32,715.252 C624.92,720.465333 623.22,727.038667 623.22,734.972 C623.22,743.132 625.543333,749.818667 630.19,755.032 C634.836667,760.245333 640.503333,763.872 647.19,765.912 C653.876667,767.952 661.3,768.972 669.46,768.972 C675.126667,768.972 680.396667,768.405333 685.27,767.272 C690.143333,766.138667 694.166667,764.778667 697.34,763.192 C700.513333,761.605333 703.29,759.962 705.67,758.262 C708.05,756.562 709.75,755.145333 710.77,754.012 C711.166667,753.571259 711.486204,753.216218 711.728611,752.946877 L711.9175,752.737 C712.1725,752.453667 712.3,752.312 712.3,752.312 C717.966667,763.645333 729.3,769.312 746.3,769.312 Z M705.82,752.652 C700.153333,757.638667 693.126667,758.545333 684.74,755.372 C674.313333,751.292 669.1,742.905333 669.1,730.212 C669.1,727.038667 669.553333,724.035333 670.46,721.202 C671.366667,718.368667 672.33,716.102 673.35,714.402 C674.37,712.702 676.126667,710.832 678.62,708.792 C681.113333,706.752 682.926667,705.335333 684.06,704.542 C685.193333,703.748667 687.29,702.445333 690.35,700.632 C693.41,698.818667 695.28,697.685333 695.96,697.232 C699.586667,695.418667 702.533333,692.925333 704.8,689.752 L704.8,689.752 L710.58,740.072 C711.26,745.285333 709.673333,749.478667 705.82,752.652 Z M829.24,769.312 C838.986667,769.312 848.28,767.612 857.12,764.212 C865.96,760.812 873.61,755.882 880.07,749.422 C886.53,742.962 890.893333,735.538667 893.16,727.152 C893.613333,725.338667 892.99,724.262 891.29,723.922 C889.59,723.582 888.513333,724.205333 888.06,725.792 C885.113333,732.138667 880.636667,737.465333 874.63,741.772 C868.623333,746.078667 861.88,748.232 854.4,748.232 C843.746667,748.458667 834.056667,744.095333 825.33,735.142 C816.603333,726.188667 811.22,714.685333 809.18,700.632 C806.686667,684.085333 808.16,669.918667 813.6,658.132 C819.04,646.345333 826.406667,640.452 835.7,640.452 C837.513333,640.452 838.816667,640.622 839.61,640.962 C840.403333,641.302 840.686667,642.038667 840.46,643.172 C840.233333,644.305333 839.893333,645.382 839.44,646.402 C838.986667,647.422 838.08,648.952 836.72,650.992 C836.04,651.898667 835.53,652.635333 835.19,653.202 C834.85,653.768667 834.34,654.562 833.66,655.582 C832.98,656.602 832.47,657.452 832.13,658.132 C831.79,658.812 831.336667,659.718667 830.77,660.852 C830.203333,661.985333 829.806667,662.948667 829.58,663.742 C829.353333,664.535333 829.013333,665.498667 828.56,666.632 C828.106667,667.765333 827.823333,668.842 827.71,669.862 C827.596667,670.882 827.483333,671.958667 827.37,673.092 C827.256667,674.225333 827.2,675.358667 827.2,676.492 C827.2,684.652 830.146667,691.282 836.04,696.382 C841.933333,701.482 848.166667,704.032 854.74,704.032 C864.26,704.032 871.57,700.518667 876.67,693.492 C881.77,686.465333 883.98,678.192 883.3,668.672 C882.393333,659.152 877.406667,651.218667 868.34,644.872 C859.273333,638.525333 847.373333,635.352 832.64,635.352 C807.48,635.352 788.723333,642.435333 776.37,656.602 C764.016667,670.768667 758.746667,688.278667 760.56,709.132 C762.146667,727.492 769.683333,742.055333 783.17,752.822 C796.656667,763.588667 812.013333,769.085333 829.24,769.312 Z M968.16,766.932 C970.2,766.932 971.22,766.025333 971.22,764.212 C971.22,762.852 970.313333,762.058667 968.5,761.832 C962.153333,760.698667 957.62,757.808667 954.9,753.162 C952.18,748.515333 950.82,741.205333 950.82,731.232 L950.82,731.232 L950.82,683.632 C950.82,674.112 951.613333,666.462 953.2,660.682 C954.786667,654.902 956.6,651.048667 958.64,649.122 C960.68,647.195333 963.173333,645.778667 966.12,644.872 C973.146667,643.058667 979.493333,645.835333 985.16,653.202 C990.826667,660.568667 994.453333,671.845333 996.04,687.032 L996.04,687.032 L1001.14,731.232 C1002.5,741.658667 1002.27333,749.082 1000.46,753.502 C998.646667,757.922 994.453333,760.698667 987.88,761.832 C985.84,762.058667 984.82,762.852 984.82,764.212 C984.82,766.025333 985.84,766.932 987.88,766.932 L987.88,766.932 L1070.16,766.932 C1072.2,766.932 1073.10667,766.025333 1072.88,764.212 C1072.88,762.852 1071.86,762.058667 1069.82,761.832 C1063.47333,760.698667 1058.65667,757.808667 1055.37,753.162 C1052.08333,748.515333 1049.87333,741.205333 1048.74,731.232 L1048.74,731.232 L1042.62,683.292 C1038.54,649.065333 1018.59333,633.198667 982.78,635.692 C970.766667,636.372 960.113333,640.565333 950.82,648.272 L950.82,648.272 L950.82,565.652 C950.82,564.518667 950.31,563.725333 949.29,563.272 C948.27,562.818667 947.42,562.932 946.74,563.612 C944.246667,565.652 941.073333,567.975333 937.22,570.582 C933.366667,573.188667 926.453333,576.362 916.48,580.102 C906.506667,583.842 896.533333,585.938667 886.56,586.392 C884.973333,586.392 884.18,587.185333 884.18,588.772 C884.18,590.585333 884.973333,591.492 886.56,591.492 C892.68,592.625333 897.043333,595.968667 899.65,601.522 C902.256667,607.075333 903.56,615.292 903.56,626.172 L903.56,626.172 L903.56,731.232 C903.56,741.658667 902.37,749.138667 899.99,753.672 C897.61,758.205333 893.02,760.925333 886.22,761.832 C884.18,762.058667 883.16,762.852 883.16,764.212 C883.16,766.025333 884.066667,766.932 885.88,766.932 L885.88,766.932 L968.16,766.932 Z M1121.56,766.932 C1136.29333,766.932 1149.38333,763.475333 1160.83,756.562 C1172.27667,749.648667 1183.21333,740.072 1193.64,727.832 C1198.85333,721.485333 1203.95333,716.442 1208.94,712.702 C1213.92667,708.962 1218.91333,706.298667 1223.9,704.712 C1228.88667,703.125333 1232.74,702.218667 1235.46,701.992 C1238.18,701.765333 1242.26,701.538667 1247.7,701.312 C1259.26,701.085333 1267.53333,699.158667 1272.52,695.532 C1280.45333,690.092 1284.42,682.612 1284.42,673.092 C1284.42,664.932 1281.53,658.245333 1275.75,653.032 C1269.97,647.818667 1263.56667,645.212 1256.54,645.212 C1248.60667,645.212 1241.35333,647.535333 1234.78,652.182 C1228.20667,656.828667 1222.42667,662.948667 1217.44,670.542 C1212.45333,678.135333 1207.92,685.955333 1203.84,694.002 C1199.76,702.048667 1195.28333,710.208667 1190.41,718.482 C1185.53667,726.755333 1180.94667,732.932 1176.64,737.012 C1175.28,738.372 1173.80667,739.618667 1172.22,740.752 C1167.68667,744.378667 1162.64333,746.702 1157.09,747.722 C1151.53667,748.742 1146.04,748.515333 1140.6,747.042 C1135.16,745.568667 1130.00333,743.132 1125.13,739.732 C1120.25667,736.332 1115.83667,731.685333 1111.87,725.792 C1107.90333,719.898667 1105.01333,713.325333 1103.2,706.072 L1103.2,706.072 L1152.5,700.292 C1161.11333,699.385333 1167.46,696.268667 1171.54,690.942 C1175.62,685.615333 1177.32,679.778667 1176.64,673.432 C1175.96,667.085333 1173.58,661.305333 1169.5,656.092 C1164.28667,649.292 1157.26,644.135333 1148.42,640.622 C1139.58,637.108667 1130.51333,635.352 1121.22,635.352 C1111.24667,635.352 1102.23667,636.598667 1094.19,639.092 C1086.14333,641.585333 1079.45667,645.042 1074.13,649.462 C1068.80333,653.882 1064.49667,658.982 1061.21,664.762 C1057.92333,670.542 1055.6,677.058667 1054.24,684.312 C1052.88,691.565333 1052.54,699.045333 1053.22,706.752 C1054.35333,719.218667 1058.37667,730.042 1065.29,739.222 C1072.20333,748.402 1080.53333,755.315333 1090.28,759.962 C1100.02667,764.608667 1110.45333,766.932 1121.56,766.932 Z M1102.18,701.312 C1100.36667,692.925333 1099.63,684.255333 1099.97,675.302 C1100.31,666.348667 1102.40667,658.302 1106.26,651.162 C1110.11333,644.022 1114.98667,640.452 1120.88,640.452 C1127.45333,640.452 1132.15667,642.832 1134.99,647.592 C1137.82333,652.352 1139.69333,659.378667 1140.6,668.672 C1141.73333,678.872 1138.73,686.465333 1131.59,691.452 C1124.45,696.438667 1114.64667,699.725333 1102.18,701.312 Z" id="a.2touac.2he.2" fill="#034488" fill-rule="nonzero"></path>
        <path d="M460.29,823.932 L460.29,802.182 L470.04,823.932 L474.64,823.932 L484.14,802.182 L484.14,823.932 L489.84,823.932 L489.84,790.932 L483.29,790.932 L472.34,816.132 L461.09,790.932 L454.54,790.932 L454.54,823.932 L460.29,823.932 Z M502.69,824.532 C504.29,824.532 505.865,824.190333 507.415,823.507 C508.965,822.823667 510.19,821.915333 511.09,820.782 L511.09,820.782 L511.29,820.782 L511.69,823.932 L516.09,823.932 L516.09,808.282 C516.09,806.882 515.831667,805.682 515.315,804.682 C514.798333,803.682 514.14,802.865333 513.34,802.232 C511.606667,800.865333 509.073333,800.182 505.74,800.182 C502.573333,800.182 499.873333,800.832 497.64,802.132 L497.64,802.132 L498.69,806.282 C500.623333,805.182 502.823333,804.632 505.29,804.632 C507.123333,804.632 508.473333,804.932 509.34,805.532 C510.173333,806.132 510.59,807.082 510.59,808.382 L510.59,808.382 L510.59,809.132 L508.44,809.132 C506.54,809.132 504.823333,809.332 503.29,809.732 C501.756667,810.132 500.44,810.707 499.34,811.457 C498.24,812.207 497.398333,813.123667 496.815,814.207 C496.231667,815.290333 495.94,816.515333 495.94,817.882 C495.94,819.882 496.54,821.490333 497.74,822.707 C498.94,823.923667 500.59,824.532 502.69,824.532 Z M504.84,820.082 C502.806667,820.082 501.79,819.082 501.79,817.082 C501.79,815.548667 502.415,814.432 503.665,813.732 C504.915,813.032 506.906667,812.682 509.64,812.682 L509.64,812.682 L510.59,812.682 L510.59,817.232 C509.956667,818.098667 509.106667,818.790333 508.04,819.307 C506.973333,819.823667 505.906667,820.082 504.84,820.082 Z M531.89,824.532 C533.69,824.532 535.181667,824.165333 536.365,823.432 C537.548333,822.698667 538.606667,821.815333 539.54,820.782 L539.54,820.782 L539.74,820.782 L540.14,823.932 L544.54,823.932 L544.54,786.932 L539.09,786.932 L539.09,803.232 C538.323333,802.265333 537.306667,801.515333 536.04,800.982 C534.773333,800.448667 533.34,800.182 531.74,800.182 C529.973333,800.182 528.448333,800.515333 527.165,801.182 C525.881667,801.848667 524.806667,802.732 523.94,803.832 C523.073333,804.932 522.431667,806.207 522.015,807.657 C521.598333,809.107 521.39,810.615333 521.39,812.182 C521.39,813.948667 521.64,815.582 522.14,817.082 C522.64,818.582 523.348333,819.882 524.265,820.982 C525.181667,822.082 526.29,822.948667 527.59,823.582 C528.89,824.215333 530.323333,824.532 531.89,824.532 Z M532.59,820.382 C531.623333,820.382 530.773333,820.148667 530.04,819.682 C529.306667,819.215333 528.706667,818.607 528.24,817.857 C527.773333,817.107 527.423333,816.240333 527.19,815.257 C526.956667,814.273667 526.84,813.282 526.84,812.282 C526.84,811.248667 526.965,810.257 527.215,809.307 C527.465,808.357 527.848333,807.515333 528.365,806.782 C528.881667,806.048667 529.523333,805.473667 530.29,805.057 C531.056667,804.640333 531.973333,804.432 533.04,804.432 C534.006667,804.432 535.006667,804.657 536.04,805.107 C537.073333,805.557 538.09,806.398667 539.09,807.632 L539.09,807.632 L539.09,817.232 C538.723333,817.732 538.273333,818.173667 537.74,818.557 C537.206667,818.940333 536.648333,819.265333 536.065,819.532 C535.481667,819.798667 534.89,820.007 534.29,820.157 C533.69,820.307 533.123333,820.382 532.59,820.382 Z M561.54,824.532 C562.54,824.532 563.498333,824.440333 564.415,824.257 C565.331667,824.073667 566.19,823.848667 566.99,823.582 C567.79,823.315333 568.506667,823.023667 569.14,822.707 C569.773333,822.390333 570.306667,822.098667 570.74,821.832 L570.74,821.832 L569.84,817.732 C568.873333,818.432 567.698333,819.015333 566.315,819.482 C564.931667,819.948667 563.623333,820.182 562.39,820.182 C561.29,820.182 560.331667,819.990333 559.515,819.607 C558.698333,819.223667 558.006667,818.707 557.44,818.057 C556.873333,817.407 556.44,816.640333 556.14,815.757 C555.84,814.873667 555.656667,813.932 555.59,812.932 L555.59,812.932 L570.14,812.932 C570.273333,812.732 570.398333,812.473667 570.515,812.157 C570.631667,811.840333 570.731667,811.482 570.815,811.082 C570.898333,810.682 570.965,810.273667 571.015,809.857 C571.065,809.440333 571.09,809.048667 571.09,808.682 C571.09,805.982 570.29,803.890333 568.69,802.407 C567.09,800.923667 564.823333,800.182 561.89,800.182 C559.99,800.182 558.298333,800.507 556.815,801.157 C555.331667,801.807 554.09,802.698667 553.09,803.832 C552.09,804.965333 551.331667,806.273667 550.815,807.757 C550.298333,809.240333 550.04,810.798667 550.04,812.432 C550.04,814.032 550.29,815.565333 550.79,817.032 C551.29,818.498667 552.023333,819.790333 552.99,820.907 C553.956667,822.023667 555.156667,822.907 556.59,823.557 C558.023333,824.207 559.673333,824.532 561.54,824.532 Z M565.59,809.032 L556.04,809.032 C556.473333,807.632 557.181667,806.523667 558.165,805.707 C559.148333,804.890333 560.34,804.482 561.74,804.482 C562.906667,804.482 563.856667,804.832 564.59,805.532 C565.323333,806.232 565.69,807.115333 565.69,808.182 C565.69,808.382 565.681667,808.548667 565.665,808.682 C565.648333,808.815333 565.623333,808.932 565.59,809.032 L565.59,809.032 Z M601.14,823.932 L606.09,807.932 L611.04,823.932 L617.59,823.932 L625.94,800.932 L620.29,800.932 L614.29,818.582 L608.84,800.932 L603.34,800.932 L597.89,818.582 L591.89,800.932 L586.14,800.932 L594.49,823.932 L601.14,823.932 Z M632.79,797.082 C633.256667,797.082 633.706667,796.990333 634.14,796.807 C634.573333,796.623667 634.965,796.365333 635.315,796.032 C635.665,795.698667 635.94,795.323667 636.14,794.907 C636.34,794.490333 636.44,794.032 636.44,793.532 C636.44,793.065333 636.34,792.615333 636.14,792.182 C635.94,791.748667 635.665,791.357 635.315,791.007 C634.965,790.657 634.573333,790.382 634.14,790.182 C633.706667,789.982 633.256667,789.882 632.79,789.882 C632.29,789.882 631.831667,789.982 631.415,790.182 C630.998333,790.382 630.623333,790.657 630.29,791.007 C629.956667,791.357 629.698333,791.748667 629.515,792.182 C629.331667,792.615333 629.24,793.065333 629.24,793.532 C629.24,794.498667 629.59,795.332 630.29,796.032 C630.99,796.732 631.823333,797.082 632.79,797.082 Z M635.54,823.932 L635.54,800.932 L630.04,800.932 L630.04,823.932 L635.54,823.932 Z M648.44,824.532 C649.573333,824.532 650.715,824.373667 651.865,824.057 C653.015,823.740333 653.906667,823.315333 654.54,822.782 L654.54,822.782 L653.64,818.832 C652.806667,819.298667 652.173333,819.615333 651.74,819.782 C651.306667,819.948667 650.873333,820.032 650.44,820.032 C649.873333,820.032 649.49,819.857 649.29,819.507 C649.09,819.157 648.99,818.482 648.99,817.482 L648.99,817.482 L648.99,804.282 L653.39,804.282 L653.39,800.932 L648.99,800.932 L648.99,793.982 L644.79,793.982 L643.89,800.782 L640.64,801.282 L640.64,804.282 L643.49,804.282 L643.49,818.632 C643.49,819.532 643.556667,820.348667 643.69,821.082 C643.823333,821.815333 644.073333,822.440333 644.44,822.957 C644.806667,823.473667 645.315,823.865333 645.965,824.132 C646.615,824.398667 647.44,824.532 648.44,824.532 Z M664.54,823.932 L664.54,809.182 C664.773333,808.482 665.123333,807.848667 665.59,807.282 C666.056667,806.715333 666.59,806.232 667.19,805.832 C667.79,805.432 668.431667,805.132 669.115,804.932 C669.798333,804.732 670.456667,804.632 671.09,804.632 C672.123333,804.632 672.94,804.973667 673.54,805.657 C674.14,806.340333 674.44,807.365333 674.44,808.732 L674.44,808.732 L674.44,823.932 L679.94,823.932 L679.94,808.282 C679.94,806.782 679.731667,805.515333 679.315,804.482 C678.898333,803.448667 678.331667,802.615333 677.615,801.982 C676.898333,801.348667 676.073333,800.890333 675.14,800.607 C674.206667,800.323667 673.24,800.182 672.24,800.182 C670.54,800.182 669.065,800.507 667.815,801.157 C666.565,801.807 665.473333,802.865333 664.54,804.332 L664.54,804.332 L664.54,786.932 L659.04,786.932 L659.04,823.932 L664.54,823.932 Z M719.34,823.932 L719.34,818.932 L705.59,818.932 L705.59,790.932 L699.84,790.932 L699.84,823.932 L719.34,823.932 Z M734.14,824.532 C736.106667,824.532 737.815,824.215333 739.265,823.582 C740.715,822.948667 741.915,822.090333 742.865,821.007 C743.815,819.923667 744.515,818.657 744.965,817.207 C745.415,815.757 745.64,814.215333 745.64,812.582 C745.64,810.948667 745.415,809.390333 744.965,807.907 C744.515,806.423667 743.815,805.107 742.865,803.957 C741.915,802.807 740.706667,801.890333 739.24,801.207 C737.773333,800.523667 736.023333,800.182 733.99,800.182 C732.023333,800.182 730.306667,800.507 728.84,801.157 C727.373333,801.807 726.165,802.690333 725.215,803.807 C724.265,804.923667 723.556667,806.215333 723.09,807.682 C722.623333,809.148667 722.39,810.698667 722.39,812.332 C722.39,813.965333 722.623333,815.515333 723.09,816.982 C723.556667,818.448667 724.273333,819.740333 725.24,820.857 C726.206667,821.973667 727.423333,822.865333 728.89,823.532 C730.356667,824.198667 732.106667,824.532 734.14,824.532 Z M734.09,820.382 C733.09,820.382 732.223333,820.157 731.49,819.707 C730.756667,819.257 730.148333,818.648667 729.665,817.882 C729.181667,817.115333 728.831667,816.240333 728.615,815.257 C728.398333,814.273667 728.29,813.248667 728.29,812.182 C728.29,811.148667 728.398333,810.165333 728.615,809.232 C728.831667,808.298667 729.165,807.482 729.615,806.782 C730.065,806.082 730.64,805.523667 731.34,805.107 C732.04,804.690333 732.873333,804.482 733.84,804.482 C734.873333,804.482 735.756667,804.707 736.49,805.157 C737.223333,805.607 737.831667,806.207 738.315,806.957 C738.798333,807.707 739.156667,808.573667 739.39,809.557 C739.623333,810.540333 739.74,811.565333 739.74,812.632 C739.74,813.665333 739.631667,814.648667 739.415,815.582 C739.198333,816.515333 738.856667,817.340333 738.39,818.057 C737.923333,818.773667 737.331667,819.340333 736.615,819.757 C735.898333,820.173667 735.056667,820.382 734.09,820.382 Z M764.09,823.932 L773.59,800.932 L768.19,800.932 L760.94,819.382 L753.99,800.932 L748.24,800.932 L757.44,823.932 L764.09,823.932 Z M787.49,824.532 C788.49,824.532 789.448333,824.440333 790.365,824.257 C791.281667,824.073667 792.14,823.848667 792.94,823.582 C793.74,823.315333 794.456667,823.023667 795.09,822.707 C795.723333,822.390333 796.256667,822.098667 796.69,821.832 L796.69,821.832 L795.79,817.732 C794.823333,818.432 793.648333,819.015333 792.265,819.482 C790.881667,819.948667 789.573333,820.182 788.34,820.182 C787.24,820.182 786.281667,819.990333 785.465,819.607 C784.648333,819.223667 783.956667,818.707 783.39,818.057 C782.823333,817.407 782.39,816.640333 782.09,815.757 C781.79,814.873667 781.606667,813.932 781.54,812.932 L781.54,812.932 L796.09,812.932 C796.223333,812.732 796.348333,812.473667 796.465,812.157 C796.581667,811.840333 796.681667,811.482 796.765,811.082 C796.848333,810.682 796.915,810.273667 796.965,809.857 C797.015,809.440333 797.04,809.048667 797.04,808.682 C797.04,805.982 796.24,803.890333 794.64,802.407 C793.04,800.923667 790.773333,800.182 787.84,800.182 C785.94,800.182 784.248333,800.507 782.765,801.157 C781.281667,801.807 780.04,802.698667 779.04,803.832 C778.04,804.965333 777.281667,806.273667 776.765,807.757 C776.248333,809.240333 775.99,810.798667 775.99,812.432 C775.99,814.032 776.24,815.565333 776.74,817.032 C777.24,818.498667 777.973333,819.790333 778.94,820.907 C779.906667,822.023667 781.106667,822.907 782.54,823.557 C783.973333,824.207 785.623333,824.532 787.49,824.532 Z M791.54,809.032 L781.99,809.032 C782.423333,807.632 783.131667,806.523667 784.115,805.707 C785.098333,804.890333 786.29,804.482 787.69,804.482 C788.856667,804.482 789.806667,804.832 790.54,805.532 C791.273333,806.232 791.64,807.115333 791.64,808.182 C791.64,808.382 791.631667,808.548667 791.615,808.682 C791.598333,808.815333 791.573333,808.932 791.54,809.032 L791.54,809.032 Z M825.54,824.532 C827.74,824.532 829.69,824.182 831.39,823.482 C833.09,822.782 834.523333,821.848667 835.69,820.682 L835.69,820.682 L838.84,823.932 L845.04,823.932 L838.24,816.932 C838.906667,815.398667 839.24,813.815333 839.24,812.182 C839.24,810.082 838.706667,808.098667 837.64,806.232 L837.64,806.232 L844.84,805.682 L844.84,801.832 L830.34,803.682 L830.34,806.782 L832.79,806.632 C833.423333,807.532 833.865,808.423667 834.115,809.307 C834.365,810.190333 834.49,811.015333 834.49,811.782 C834.49,811.982 834.481667,812.182 834.465,812.382 C834.448333,812.582 834.423333,812.765333 834.39,812.932 L834.39,812.932 L825.79,804.032 C824.923333,803.132 824.19,802.257 823.59,801.407 C822.99,800.557 822.69,799.598667 822.69,798.532 C822.69,797.465333 822.965,796.665333 823.515,796.132 C824.065,795.598667 824.74,795.332 825.54,795.332 C825.973333,795.332 826.44,795.407 826.94,795.557 C827.44,795.707 827.931667,795.890333 828.415,796.107 C828.898333,796.323667 829.356667,796.573667 829.79,796.857 C830.223333,797.140333 830.59,797.415333 830.89,797.682 L830.89,797.682 L832.29,792.882 C831.156667,792.182 829.965,791.640333 828.715,791.257 C827.465,790.873667 826.273333,790.682 825.14,790.682 C824.14,790.682 823.19,790.840333 822.29,791.157 C821.39,791.473667 820.598333,791.948667 819.915,792.582 C819.231667,793.215333 818.698333,793.990333 818.315,794.907 C817.931667,795.823667 817.74,796.898667 817.74,798.132 C817.74,799.598667 818.006667,800.898667 818.54,802.032 C819.073333,803.165333 819.823333,804.298667 820.79,805.432 C819.69,805.898667 818.715,806.498667 817.865,807.232 C817.015,807.965333 816.315,808.765333 815.765,809.632 C815.215,810.498667 814.798333,811.407 814.515,812.357 C814.231667,813.307 814.09,814.232 814.09,815.132 C814.09,816.332 814.331667,817.498667 814.815,818.632 C815.298333,819.765333 816.023333,820.773667 816.99,821.657 C817.956667,822.540333 819.156667,823.240333 820.59,823.757 C822.023333,824.273667 823.673333,824.532 825.54,824.532 Z M825.99,819.732 C824.223333,819.732 822.765,819.298667 821.615,818.432 C820.465,817.565333 819.89,816.232 819.89,814.432 C819.89,813.798667 819.973333,813.165333 820.14,812.532 C820.306667,811.898667 820.556667,811.323667 820.89,810.807 C821.223333,810.290333 821.631667,809.832 822.115,809.432 C822.598333,809.032 823.156667,808.748667 823.79,808.582 L823.79,808.582 L832.29,817.232 C831.556667,817.998667 830.656667,818.607 829.59,819.057 C828.523333,819.507 827.323333,819.732 825.99,819.732 Z M869.09,823.932 L869.09,808.932 L878.54,808.932 L878.54,803.932 L869.09,803.932 L869.09,795.932 L882.19,795.932 L882.19,790.932 L863.34,790.932 L863.34,823.932 L869.09,823.932 Z M889.49,797.082 C889.956667,797.082 890.406667,796.990333 890.84,796.807 C891.273333,796.623667 891.665,796.365333 892.015,796.032 C892.365,795.698667 892.64,795.323667 892.84,794.907 C893.04,794.490333 893.14,794.032 893.14,793.532 C893.14,793.065333 893.04,792.615333 892.84,792.182 C892.64,791.748667 892.365,791.357 892.015,791.007 C891.665,790.657 891.273333,790.382 890.84,790.182 C890.406667,789.982 889.956667,789.882 889.49,789.882 C888.99,789.882 888.531667,789.982 888.115,790.182 C887.698333,790.382 887.323333,790.657 886.99,791.007 C886.656667,791.357 886.398333,791.748667 886.215,792.182 C886.031667,792.615333 885.94,793.065333 885.94,793.532 C885.94,794.498667 886.29,795.332 886.99,796.032 C887.69,796.732 888.523333,797.082 889.49,797.082 Z M892.24,823.932 L892.24,800.932 L886.74,800.932 L886.74,823.932 L892.24,823.932 Z M911.79,824.532 C913.356667,824.532 914.79,824.215333 916.09,823.582 C917.39,822.948667 918.498333,822.082 919.415,820.982 C920.331667,819.882 921.04,818.582 921.54,817.082 C922.04,815.582 922.29,813.948667 922.29,812.182 C922.29,810.615333 922.081667,809.107 921.665,807.657 C921.248333,806.207 920.606667,804.932 919.74,803.832 C918.873333,802.732 917.79,801.848667 916.49,801.182 C915.19,800.515333 913.673333,800.182 911.94,800.182 C910.34,800.182 908.906667,800.448667 907.64,800.982 C906.373333,801.515333 905.356667,802.265333 904.59,803.232 L904.59,803.232 L904.59,786.932 L899.14,786.932 L899.14,823.932 L903.54,823.932 L903.94,820.782 L904.14,820.782 C905.073333,821.815333 906.131667,822.698667 907.315,823.432 C908.498333,824.165333 909.99,824.532 911.79,824.532 Z M911.09,820.382 C910.556667,820.382 909.99,820.307 909.39,820.157 C908.79,820.007 908.198333,819.798667 907.615,819.532 C907.031667,819.265333 906.473333,818.940333 905.94,818.557 C905.406667,818.173667 904.956667,817.732 904.59,817.232 L904.59,817.232 L904.59,807.632 C905.59,806.398667 906.606667,805.557 907.64,805.107 C908.673333,804.657 909.673333,804.432 910.64,804.432 C911.673333,804.432 912.581667,804.640333 913.365,805.057 C914.148333,805.473667 914.798333,806.048667 915.315,806.782 C915.831667,807.515333 916.215,808.357 916.465,809.307 C916.715,810.257 916.84,811.248667 916.84,812.282 C916.84,813.282 916.723333,814.273667 916.49,815.257 C916.256667,816.240333 915.898333,817.107 915.415,817.857 C914.931667,818.607 914.331667,819.215333 913.615,819.682 C912.898333,820.148667 912.056667,820.382 911.09,820.382 Z M937.94,824.532 C938.94,824.532 939.898333,824.440333 940.815,824.257 C941.731667,824.073667 942.59,823.848667 943.39,823.582 C944.19,823.315333 944.906667,823.023667 945.54,822.707 C946.173333,822.390333 946.706667,822.098667 947.14,821.832 L947.14,821.832 L946.24,817.732 C945.273333,818.432 944.098333,819.015333 942.715,819.482 C941.331667,819.948667 940.023333,820.182 938.79,820.182 C937.69,820.182 936.731667,819.990333 935.915,819.607 C935.098333,819.223667 934.406667,818.707 933.84,818.057 C933.273333,817.407 932.84,816.640333 932.54,815.757 C932.24,814.873667 932.056667,813.932 931.99,812.932 L931.99,812.932 L946.54,812.932 C946.673333,812.732 946.798333,812.473667 946.915,812.157 C947.031667,811.840333 947.131667,811.482 947.215,811.082 C947.298333,810.682 947.365,810.273667 947.415,809.857 C947.465,809.440333 947.49,809.048667 947.49,808.682 C947.49,805.982 946.69,803.890333 945.09,802.407 C943.49,800.923667 941.223333,800.182 938.29,800.182 C936.39,800.182 934.698333,800.507 933.215,801.157 C931.731667,801.807 930.49,802.698667 929.49,803.832 C928.49,804.965333 927.731667,806.273667 927.215,807.757 C926.698333,809.240333 926.44,810.798667 926.44,812.432 C926.44,814.032 926.69,815.565333 927.19,817.032 C927.69,818.498667 928.423333,819.790333 929.39,820.907 C930.356667,822.023667 931.556667,822.907 932.99,823.557 C934.423333,824.207 936.073333,824.532 937.94,824.532 Z M941.99,809.032 L932.44,809.032 C932.873333,807.632 933.581667,806.523667 934.565,805.707 C935.548333,804.890333 936.74,804.482 938.14,804.482 C939.306667,804.482 940.256667,804.832 940.99,805.532 C941.723333,806.232 942.09,807.115333 942.09,808.182 C942.09,808.382 942.081667,808.548667 942.065,808.682 C942.048333,808.815333 942.023333,808.932 941.99,809.032 L941.99,809.032 Z M958.59,823.932 L958.59,810.582 C958.79,809.882 959.006667,809.198667 959.24,808.532 C959.473333,807.865333 959.756667,807.273667 960.09,806.757 C960.423333,806.240333 960.806667,805.823667 961.24,805.507 C961.673333,805.190333 962.223333,805.032 962.89,805.032 C963.39,805.032 963.99,805.115333 964.69,805.282 C965.39,805.448667 965.906667,805.665333 966.24,805.932 L966.24,805.932 L967.69,801.482 C966.523333,800.615333 965.273333,800.182 963.94,800.182 C963.106667,800.182 962.381667,800.340333 961.765,800.657 C961.148333,800.973667 960.606667,801.390333 960.14,801.907 C959.673333,802.423667 959.256667,803.015333 958.89,803.682 C958.523333,804.348667 958.173333,805.032 957.84,805.732 L957.84,805.732 L957.64,805.732 L957.39,800.932 L953.09,800.932 L953.09,823.932 L958.59,823.932 Z" id="MadewithLove&amp;Fiber" fill="#DF7224" fill-rule="nonzero"></path>
    </g>
</svg>