<?xml version="1.0" encoding="UTF-8"?>
<svg width="1188px" height="294px" viewBox="0 0 1188 294" version="1.1" xmlns="http://www.w3.org/2000/svg" xmlns:xlink="http://www.w3.org/1999/xlink">
    <title>weblogo_color</title>
    <g id="weblogo_color" stroke="none" stroke-width="1" fill="none" fill-rule="evenodd">
        <g id="Group" transform="translate(10.000000, 10.000000)" fill-rule="nonzero">
            <path d="M155.72,271.932 C163.653333,274.198667 173.966667,274.312 186.66,272.272 C199.353333,270.232 209.44,266.378667 216.92,260.712 C224.626667,254.592 228.48,246.998667 228.48,237.932 C228.48,229.772 225.59,223.142 219.81,218.042 C214.03,212.942 207.74,210.392 200.94,210.392 C195.273333,210.392 190.173333,211.922 185.64,214.982 C181.106667,218.042 177.706667,222.065333 175.44,227.052 C174.306667,229.772 173.626667,232.662 173.4,235.722 C173.173333,238.782 173.286667,242.352 173.74,246.432 C174.193333,250.512 174.42,253.232 174.42,254.592 C174.42,262.978667 171.133333,267.172 164.56,267.172 C162.293333,267.172 160.14,266.378667 158.1,264.792 C156.06,263.205333 154.19,260.768667 152.49,257.482 C150.79,254.195333 149.203333,250.625333 147.73,246.772 C146.256667,242.918667 144.84,238.272 143.48,232.832 C142.12,227.392 140.986667,222.122 140.08,217.022 C139.173333,211.922 138.21,206.085333 137.19,199.512 C136.17,192.938667 135.32,187.045333 134.64,181.832 C133.96,176.618667 133.28,170.725333 132.6,164.152 L132.6,164.152 L127.5,120.292 C122.513333,88.332 101.66,72.2386667 64.94,72.012 C62.6733333,72.012 60.2933333,72.1253333 57.8,72.352 C41.0266667,73.2586667 28.6733333,77.7353333 20.74,85.782 C12.8066667,93.8286667 10.3133333,103.065333 13.26,113.492 C14.1666667,117.345333 16.0366667,120.518667 18.87,123.012 C21.7033333,125.505333 24.8766667,126.978667 28.39,127.432 C31.9033333,127.885333 35.3033333,127.772 38.59,127.092 C41.8766667,126.412 44.8233333,124.882 47.43,122.502 C50.0366667,120.122 51.6233333,117.345333 52.19,114.172 C52.7566667,110.998667 52.4166667,108.165333 51.17,105.672 C49.9233333,103.178667 48.3933333,101.365333 46.58,100.232 C44.7666667,99.0986667 43.1233333,97.6253333 41.65,95.812 C40.1766667,93.9986667 39.44,91.9586667 39.44,89.692 C39.44,88.1053333 39.7233333,86.632 40.29,85.272 C40.8566667,83.912 41.65,82.6086667 42.67,81.362 C43.69,80.1153333 45.1633333,79.152 47.09,78.472 C49.0166667,77.792 51.34,77.452 54.06,77.452 C58.14,77.452 61.7666667,78.5286667 64.94,80.682 C68.1133333,82.8353333 70.6066667,85.6686667 72.42,89.182 C74.2333333,92.6953333 75.65,96.0953333 76.67,99.382 C77.69,102.668667 78.3133333,106.012 78.54,109.412 C79.22,114.625333 78.9366667,118.705333 77.69,121.652 C76.4433333,124.598667 73.78,126.978667 69.7,128.792 C66.3,130.378667 61.2566667,131.682 54.57,132.702 C47.8833333,133.722 41.65,134.798667 35.87,135.932 C30.09,137.065333 24.3666667,138.765333 18.7,141.032 C13.0333333,143.298667 8.5,147.038667 5.1,152.252 C1.7,157.465333 0,164.038667 0,171.972 C0,180.132 2.32333333,186.818667 6.97,192.032 C11.6166667,197.245333 17.2833333,200.872 23.97,202.912 C30.6566667,204.952 38.08,205.972 46.24,205.972 C51.9066667,205.972 57.1766667,205.405333 62.05,204.272 C66.9233333,203.138667 70.9466667,201.778667 74.12,200.192 C77.2933333,198.605333 80.07,196.962 82.45,195.262 C84.83,193.562 86.53,192.145333 87.55,191.012 C87.9466667,190.571259 88.2662037,190.216218 88.5086111,189.946877 L88.6975,189.737 C88.9525,189.453667 89.08,189.312 89.08,189.312 C100.186667,237.365333 122.4,264.905333 155.72,271.932 Z M81.6,189.652 C75.9333333,194.638667 68.9066667,195.545333 60.52,192.372 C50.0933333,188.292 44.88,179.905333 44.88,167.212 C44.88,164.492 45.1633333,161.942 45.73,159.562 C46.2966667,157.182 47.2033333,155.028667 48.45,153.102 C49.6966667,151.175333 50.8866667,149.475333 52.02,148.002 C53.1533333,146.528667 54.74,145.055333 56.78,143.582 C58.82,142.108667 60.4633333,140.975333 61.71,140.182 C62.9566667,139.388667 64.7133333,138.368667 66.98,137.122 C69.2466667,135.875333 70.8333333,134.912 71.74,134.232 C75.3666667,132.418667 78.3133333,129.925333 80.58,126.752 L80.58,126.752 L86.36,177.072 C87.04,182.285333 85.4533333,186.478667 81.6,189.652 Z M176.32,205.972 C185.386667,205.972 193.66,202.912 201.14,196.792 C208.62,190.672 214.286667,183.192 218.14,174.352 C218.593333,173.445333 218.593333,172.595333 218.14,171.802 C217.686667,171.008667 217.006667,170.612 216.1,170.612 C214.966667,170.612 214.173333,171.178667 213.72,172.312 C212.36,175.485333 210.32,178.318667 207.6,180.812 C204.88,183.305333 202.16,184.552 199.44,184.552 C192.186667,184.778667 188.56,176.052 188.56,158.372 L188.56,158.372 L188.56,84.592 L212.02,84.592 C213.833333,84.592 214.74,83.742 214.74,82.042 C214.74,80.342 213.833333,79.492 212.02,79.492 L212.02,79.492 L188.56,79.492 L188.56,27.472 C188.56,25.8853333 187.88,24.9786667 186.52,24.752 C185.16,24.5253333 184.253333,25.092 183.8,26.452 C180.626667,37.1053333 172.296667,48.042 158.81,59.262 C145.323333,70.482 133.82,77.112 124.3,79.152 C122.486667,79.3786667 121.58,80.172 121.58,81.532 C121.58,82.892 122.6,83.7986667 124.64,84.252 L124.64,84.252 L131.44,84.252 C132.8,84.252 134.33,84.5353333 136.03,85.102 C137.73,85.6686667 138.75,86.2353333 139.09,86.802 C139.43,87.3686667 139.883333,88.672 140.45,90.712 C141.016667,92.752 141.3,94.792 141.3,96.832 L141.3,96.832 L141.3,106.012 L140.96,158.372 C140.96,175.372 143.906667,187.555333 149.8,194.922 C155.693333,202.288667 164.533333,205.972 176.32,205.972 Z M271.52,205.972 C290.106667,205.972 305.916667,199.455333 318.95,186.422 C331.983333,173.388667 338.5,157.692 338.5,139.332 C338.5,120.745333 331.983333,104.935333 318.95,91.902 C305.916667,78.8686667 290.106667,72.352 271.52,72.352 C253.16,72.352 237.463333,78.8686667 224.43,91.902 C211.396667,104.935333 204.88,120.745333 204.88,139.332 C204.88,157.692 211.396667,173.388667 224.43,186.422 C237.463333,199.455333 253.16,205.972 271.52,205.972 Z M287.84,198.832 C281.266667,200.645333 274.636667,196.395333 267.95,186.082 C261.263333,175.768667 255.54,162.112 250.78,145.112 C246.246667,128.792 244.263333,114.228667 244.83,101.422 C245.396667,88.6153333 248.966667,81.3053333 255.54,79.492 L255.54,79.492 L258.26,79.492 C264.38,79.2653333 270.556667,84.252 276.79,94.452 C283.023333,104.652 288.293333,117.685333 292.6,133.552 C297.133333,149.872 299.116667,164.378667 298.55,177.072 C297.983333,189.765333 294.413333,197.018667 287.84,198.832 Z M405.82,205.972 C425.766667,206.198667 439.593333,201.098667 447.3,190.672 C453.193333,200.872 464.3,205.972 480.62,205.972 C490.366667,205.972 500.226667,203.252 510.2,197.812 C511.333333,197.132 511.73,196.168667 511.39,194.922 C511.05,193.675333 510.2,193.052 508.84,193.052 C508.698333,193.052 508.313177,193.074135 507.684531,193.118406 L507.278125,193.147625 C506.987708,193.168875 506.658333,193.193667 506.29,193.222 C504.816667,193.335333 503.853333,193.278667 503.4,193.052 C498.866667,192.145333 495.693333,188.518667 493.88,182.172 C492.52,176.958667 491.84,170.158667 491.84,161.772 L491.84,161.772 L491.84,75.072 C491.84,73.2586667 490.933333,72.352 489.12,72.352 C488.44,72.352 487.873333,72.5786667 487.42,73.032 C485.833333,74.392 483.793333,75.922 481.3,77.622 C478.806667,79.322 474.84,81.6453333 469.4,84.592 C463.96,87.5386667 457.556667,90.0886667 450.19,92.242 C442.823333,94.3953333 435.286667,95.5853333 427.58,95.812 C425.766667,95.812 424.86,96.6053333 424.86,98.192 C424.86,99.552 425.88,100.458667 427.92,100.912 C431.773333,101.592 434.946667,103.348667 437.44,106.182 C439.933333,109.015333 441.69,112.812 442.71,117.572 C443.73,122.332 444.24,128.338667 444.24,135.592 L444.24,135.592 L444.24,154.292 C444.24,165.398667 442.086667,175.598667 437.78,184.892 C433.473333,194.185333 427.693333,198.945333 420.44,199.172 C412.733333,199.172 407.18,195.318667 403.78,187.612 C400.38,179.905333 398.68,170.045333 398.68,158.032 L398.68,158.032 L398.68,75.072 C398.68,73.2586667 397.773333,72.352 395.96,72.352 C395.28,72.352 394.713333,72.5786667 394.26,73.032 C391.766667,75.072 388.65,77.3386667 384.91,79.832 C381.17,82.3253333 374.313333,85.4986667 364.34,89.352 C354.366667,93.2053333 344.393333,95.3586667 334.42,95.812 C332.606667,95.812 331.7,96.6053333 331.7,98.192 C331.7,99.552 332.72,100.458667 334.76,100.912 C340.653333,102.045333 344.846667,105.388667 347.34,110.942 C349.833333,116.495333 351.08,124.712 351.08,135.592 L351.08,135.592 L351.08,158.032 C351.08,173.218667 356.18,185.005333 366.38,193.392 C376.58,201.778667 389.726667,205.972 405.82,205.972 Z M630.3,206.312 C642.313333,206.312 653.08,203.478667 662.6,197.812 C663.733333,197.132 664.186667,196.168667 663.96,194.922 C663.733333,193.675333 662.94,193.052 661.58,193.052 C661.126667,193.052 660.163333,193.108667 658.69,193.222 C657.216667,193.335333 656.366667,193.278667 656.14,193.052 C648.206667,191.692 642.766667,182.058667 639.82,164.152 L639.82,164.152 L634.72,120.292 C629.28,86.292 606.046667,70.312 565.02,72.352 C548.246667,73.2586667 535.893333,77.7353333 527.96,85.782 C520.026667,93.8286667 517.533333,103.065333 520.48,113.492 C521.386667,117.345333 523.256667,120.518667 526.09,123.012 C528.923333,125.505333 532.096667,126.978667 535.61,127.432 C539.123333,127.885333 542.523333,127.772 545.81,127.092 C549.096667,126.412 552.043333,124.882 554.65,122.502 C557.256667,120.122 558.843333,117.345333 559.41,114.172 C559.976667,110.998667 559.636667,108.165333 558.39,105.672 C557.143333,103.178667 555.613333,101.365333 553.8,100.232 C551.986667,99.0986667 550.343333,97.6253333 548.87,95.812 C547.396667,93.9986667 546.66,91.9586667 546.66,89.692 C546.66,86.292 547.85,83.402 550.23,81.022 C552.61,78.642 556.293333,77.452 561.28,77.452 C566.493333,77.452 571.026667,79.4353333 574.88,83.402 C578.733333,87.3686667 581.396667,91.5053333 582.87,95.812 C584.343333,100.118667 585.306667,104.652 585.76,109.412 C586.44,114.625333 586.156667,118.705333 584.91,121.652 C583.663333,124.598667 581,126.978667 576.92,128.792 C573.52,130.378667 568.476667,131.682 561.79,132.702 C555.103333,133.722 548.87,134.798667 543.09,135.932 C537.31,137.065333 531.586667,138.765333 525.92,141.032 C520.253333,143.298667 515.72,147.038667 512.32,152.252 C508.92,157.465333 507.22,164.038667 507.22,171.972 C507.22,180.132 509.543333,186.818667 514.19,192.032 C518.836667,197.245333 524.503333,200.872 531.19,202.912 C537.876667,204.952 545.3,205.972 553.46,205.972 C559.126667,205.972 564.396667,205.405333 569.27,204.272 C574.143333,203.138667 578.166667,201.778667 581.34,200.192 C584.513333,198.605333 587.29,196.962 589.67,195.262 C592.05,193.562 593.75,192.145333 594.77,191.012 C595.166667,190.571259 595.486204,190.216218 595.728611,189.946877 L595.9175,189.737 C596.1725,189.453667 596.3,189.312 596.3,189.312 C601.966667,200.645333 613.3,206.312 630.3,206.312 Z M589.82,189.652 C584.153333,194.638667 577.126667,195.545333 568.74,192.372 C558.313333,188.292 553.1,179.905333 553.1,167.212 C553.1,164.038667 553.553333,161.035333 554.46,158.202 C555.366667,155.368667 556.33,153.102 557.35,151.402 C558.37,149.702 560.126667,147.832 562.62,145.792 C565.113333,143.752 566.926667,142.335333 568.06,141.542 C569.193333,140.748667 571.29,139.445333 574.35,137.632 C577.41,135.818667 579.28,134.685333 579.96,134.232 C583.586667,132.418667 586.533333,129.925333 588.8,126.752 L588.8,126.752 L594.58,177.072 C595.26,182.285333 593.673333,186.478667 589.82,189.652 Z M713.24,206.312 C722.986667,206.312 732.28,204.612 741.12,201.212 C749.96,197.812 757.61,192.882 764.07,186.422 C770.53,179.962 774.893333,172.538667 777.16,164.152 C777.613333,162.338667 776.99,161.262 775.29,160.922 C773.59,160.582 772.513333,161.205333 772.06,162.792 C769.113333,169.138667 764.636667,174.465333 758.63,178.772 C752.623333,183.078667 745.88,185.232 738.4,185.232 C727.746667,185.458667 718.056667,181.095333 709.33,172.142 C700.603333,163.188667 695.22,151.685333 693.18,137.632 C690.686667,121.085333 692.16,106.918667 697.6,95.132 C703.04,83.3453333 710.406667,77.452 719.7,77.452 C721.513333,77.452 722.816667,77.622 723.61,77.962 C724.403333,78.302 724.686667,79.0386667 724.46,80.172 C724.233333,81.3053333 723.893333,82.382 723.44,83.402 C722.986667,84.422 722.08,85.952 720.72,87.992 C720.04,88.8986667 719.53,89.6353333 719.19,90.202 C718.85,90.7686667 718.34,91.562 717.66,92.582 C716.98,93.602 716.47,94.452 716.13,95.132 C715.79,95.812 715.336667,96.7186667 714.77,97.852 C714.203333,98.9853333 713.806667,99.9486667 713.58,100.742 C713.353333,101.535333 713.013333,102.498667 712.56,103.632 C712.106667,104.765333 711.823333,105.842 711.71,106.862 C711.596667,107.882 711.483333,108.958667 711.37,110.092 C711.256667,111.225333 711.2,112.358667 711.2,113.492 C711.2,121.652 714.146667,128.282 720.04,133.382 C725.933333,138.482 732.166667,141.032 738.74,141.032 C748.26,141.032 755.57,137.518667 760.67,130.492 C765.77,123.465333 767.98,115.192 767.3,105.672 C766.393333,96.152 761.406667,88.2186667 752.34,81.872 C743.273333,75.5253333 731.373333,72.352 716.64,72.352 C691.48,72.352 672.723333,79.4353333 660.37,93.602 C648.016667,107.768667 642.746667,125.278667 644.56,146.132 C646.146667,164.492 653.683333,179.055333 667.17,189.822 C680.656667,200.588667 696.013333,206.085333 713.24,206.312 Z M852.16,203.932 C854.2,203.932 855.22,203.025333 855.22,201.212 C855.22,199.852 854.313333,199.058667 852.5,198.832 C846.153333,197.698667 841.62,194.808667 838.9,190.162 C836.18,185.515333 834.82,178.205333 834.82,168.232 L834.82,168.232 L834.82,120.632 C834.82,111.112 835.613333,103.462 837.2,97.682 C838.786667,91.902 840.6,88.0486667 842.64,86.122 C844.68,84.1953333 847.173333,82.7786667 850.12,81.872 C857.146667,80.0586667 863.493333,82.8353333 869.16,90.202 C874.826667,97.5686667 878.453333,108.845333 880.04,124.032 L880.04,124.032 L885.14,168.232 C886.5,178.658667 886.273333,186.082 884.46,190.502 C882.646667,194.922 878.453333,197.698667 871.88,198.832 C869.84,199.058667 868.82,199.852 868.82,201.212 C868.82,203.025333 869.84,203.932 871.88,203.932 L871.88,203.932 L954.16,203.932 C956.2,203.932 957.106667,203.025333 956.88,201.212 C956.88,199.852 955.86,199.058667 953.82,198.832 C947.473333,197.698667 942.656667,194.808667 939.37,190.162 C936.083333,185.515333 933.873333,178.205333 932.74,168.232 L932.74,168.232 L926.62,120.292 C922.54,86.0653333 902.593333,70.1986667 866.78,72.692 C854.766667,73.372 844.113333,77.5653333 834.82,85.272 L834.82,85.272 L834.82,2.652 C834.82,1.51866667 834.31,0.725333333 833.29,0.272 C832.27,-0.181333333 831.42,-0.068 830.74,0.612 C828.246667,2.652 825.073333,4.97533333 821.22,7.582 C817.366667,10.1886667 810.453333,13.362 800.48,17.102 C790.506667,20.842 780.533333,22.9386667 770.56,23.392 C768.973333,23.392 768.18,24.1853333 768.18,25.772 C768.18,27.5853333 768.973333,28.492 770.56,28.492 C776.68,29.6253333 781.043333,32.9686667 783.65,38.522 C786.256667,44.0753333 787.56,52.292 787.56,63.172 L787.56,63.172 L787.56,168.232 C787.56,178.658667 786.37,186.138667 783.99,190.672 C781.61,195.205333 777.02,197.925333 770.22,198.832 C768.18,199.058667 767.16,199.852 767.16,201.212 C767.16,203.025333 768.066667,203.932 769.88,203.932 L769.88,203.932 L852.16,203.932 Z M1005.56,203.932 C1020.29333,203.932 1033.38333,200.475333 1044.83,193.562 C1056.27667,186.648667 1067.21333,177.072 1077.64,164.832 C1082.85333,158.485333 1087.95333,153.442 1092.94,149.702 C1097.92667,145.962 1102.91333,143.298667 1107.9,141.712 C1112.88667,140.125333 1116.74,139.218667 1119.46,138.992 C1122.18,138.765333 1126.26,138.538667 1131.7,138.312 C1143.26,138.085333 1151.53333,136.158667 1156.52,132.532 C1164.45333,127.092 1168.42,119.612 1168.42,110.092 C1168.42,101.932 1165.53,95.2453333 1159.75,90.032 C1153.97,84.8186667 1147.56667,82.212 1140.54,82.212 C1132.60667,82.212 1125.35333,84.5353333 1118.78,89.182 C1112.20667,93.8286667 1106.42667,99.9486667 1101.44,107.542 C1096.45333,115.135333 1091.92,122.955333 1087.84,131.002 C1083.76,139.048667 1079.28333,147.208667 1074.41,155.482 C1069.53667,163.755333 1064.94667,169.932 1060.64,174.012 C1059.28,175.372 1057.80667,176.618667 1056.22,177.752 C1051.68667,181.378667 1046.64333,183.702 1041.09,184.722 C1035.53667,185.742 1030.04,185.515333 1024.6,184.042 C1019.16,182.568667 1014.00333,180.132 1009.13,176.732 C1004.25667,173.332 999.836667,168.685333 995.87,162.792 C991.903333,156.898667 989.013333,150.325333 987.2,143.072 L987.2,143.072 L1036.5,137.292 C1045.11333,136.385333 1051.46,133.268667 1055.54,127.942 C1059.62,122.615333 1061.32,116.778667 1060.64,110.432 C1059.96,104.085333 1057.58,98.3053333 1053.5,93.092 C1048.28667,86.292 1041.26,81.1353333 1032.42,77.622 C1023.58,74.1086667 1014.51333,72.352 1005.22,72.352 C995.246667,72.352 986.236667,73.5986667 978.19,76.092 C970.143333,78.5853333 963.456667,82.042 958.13,86.462 C952.803333,90.882 948.496667,95.982 945.21,101.762 C941.923333,107.542 939.6,114.058667 938.24,121.312 C936.88,128.565333 936.54,136.045333 937.22,143.752 C938.353333,156.218667 942.376667,167.042 949.29,176.222 C956.203333,185.402 964.533333,192.315333 974.28,196.962 C984.026667,201.608667 994.453333,203.932 1005.56,203.932 Z M986.18,138.312 C984.366667,129.925333 983.63,121.255333 983.97,112.302 C984.31,103.348667 986.406667,95.302 990.26,88.162 C994.113333,81.022 998.986667,77.452 1004.88,77.452 C1011.45333,77.452 1016.15667,79.832 1018.99,84.592 C1021.82333,89.352 1023.69333,96.3786667 1024.6,105.672 C1025.73333,115.872 1022.73,123.465333 1015.59,128.452 C1008.45,133.438667 998.646667,136.725333 986.18,138.312 Z" id="a.2touac.2he.2" fill="#034488"></path>
            <path d="M344.29,260.932 L344.29,239.182 L354.04,260.932 L358.64,260.932 L368.14,239.182 L368.14,260.932 L373.84,260.932 L373.84,227.932 L367.29,227.932 L356.34,253.132 L345.09,227.932 L338.54,227.932 L338.54,260.932 L344.29,260.932 Z M386.69,261.532 C388.29,261.532 389.865,261.190333 391.415,260.507 C392.965,259.823667 394.19,258.915333 395.09,257.782 L395.09,257.782 L395.29,257.782 L395.69,260.932 L400.09,260.932 L400.09,245.282 C400.09,243.882 399.831667,242.682 399.315,241.682 C398.798333,240.682 398.14,239.865333 397.34,239.232 C395.606667,237.865333 393.073333,237.182 389.74,237.182 C386.573333,237.182 383.873333,237.832 381.64,239.132 L381.64,239.132 L382.69,243.282 C384.623333,242.182 386.823333,241.632 389.29,241.632 C391.123333,241.632 392.473333,241.932 393.34,242.532 C394.173333,243.132 394.59,244.082 394.59,245.382 L394.59,245.382 L394.59,246.132 L392.44,246.132 C390.54,246.132 388.823333,246.332 387.29,246.732 C385.756667,247.132 384.44,247.707 383.34,248.457 C382.24,249.207 381.398333,250.123667 380.815,251.207 C380.231667,252.290333 379.94,253.515333 379.94,254.882 C379.94,256.882 380.54,258.490333 381.74,259.707 C382.94,260.923667 384.59,261.532 386.69,261.532 Z M388.84,257.082 C386.806667,257.082 385.79,256.082 385.79,254.082 C385.79,252.548667 386.415,251.432 387.665,250.732 C388.915,250.032 390.906667,249.682 393.64,249.682 L393.64,249.682 L394.59,249.682 L394.59,254.232 C393.956667,255.098667 393.106667,255.790333 392.04,256.307 C390.973333,256.823667 389.906667,257.082 388.84,257.082 Z M415.89,261.532 C417.69,261.532 419.181667,261.165333 420.365,260.432 C421.548333,259.698667 422.606667,258.815333 423.54,257.782 L423.54,257.782 L423.74,257.782 L424.14,260.932 L428.54,260.932 L428.54,223.932 L423.09,223.932 L423.09,240.232 C422.323333,239.265333 421.306667,238.515333 420.04,237.982 C418.773333,237.448667 417.34,237.182 415.74,237.182 C413.973333,237.182 412.448333,237.515333 411.165,238.182 C409.881667,238.848667 408.806667,239.732 407.94,240.832 C407.073333,241.932 406.431667,243.207 406.015,244.657 C405.598333,246.107 405.39,247.615333 405.39,249.182 C405.39,250.948667 405.64,252.582 406.14,254.082 C406.64,255.582 407.348333,256.882 408.265,257.982 C409.181667,259.082 410.29,259.948667 411.59,260.582 C412.89,261.215333 414.323333,261.532 415.89,261.532 Z M416.59,257.382 C415.623333,257.382 414.773333,257.148667 414.04,256.682 C413.306667,256.215333 412.706667,255.607 412.24,254.857 C411.773333,254.107 411.423333,253.240333 411.19,252.257 C410.956667,251.273667 410.84,250.282 410.84,249.282 C410.84,248.248667 410.965,247.257 411.215,246.307 C411.465,245.357 411.848333,244.515333 412.365,243.782 C412.881667,243.048667 413.523333,242.473667 414.29,242.057 C415.056667,241.640333 415.973333,241.432 417.04,241.432 C418.006667,241.432 419.006667,241.657 420.04,242.107 C421.073333,242.557 422.09,243.398667 423.09,244.632 L423.09,244.632 L423.09,254.232 C422.723333,254.732 422.273333,255.173667 421.74,255.557 C421.206667,255.940333 420.648333,256.265333 420.065,256.532 C419.481667,256.798667 418.89,257.007 418.29,257.157 C417.69,257.307 417.123333,257.382 416.59,257.382 Z M445.54,261.532 C446.54,261.532 447.498333,261.440333 448.415,261.257 C449.331667,261.073667 450.19,260.848667 450.99,260.582 C451.79,260.315333 452.506667,260.023667 453.14,259.707 C453.773333,259.390333 454.306667,259.098667 454.74,258.832 L454.74,258.832 L453.84,254.732 C452.873333,255.432 451.698333,256.015333 450.315,256.482 C448.931667,256.948667 447.623333,257.182 446.39,257.182 C445.29,257.182 444.331667,256.990333 443.515,256.607 C442.698333,256.223667 442.006667,255.707 441.44,255.057 C440.873333,254.407 440.44,253.640333 440.14,252.757 C439.84,251.873667 439.656667,250.932 439.59,249.932 L439.59,249.932 L454.14,249.932 C454.273333,249.732 454.398333,249.473667 454.515,249.157 C454.631667,248.840333 454.731667,248.482 454.815,248.082 C454.898333,247.682 454.965,247.273667 455.015,246.857 C455.065,246.440333 455.09,246.048667 455.09,245.682 C455.09,242.982 454.29,240.890333 452.69,239.407 C451.09,237.923667 448.823333,237.182 445.89,237.182 C443.99,237.182 442.298333,237.507 440.815,238.157 C439.331667,238.807 438.09,239.698667 437.09,240.832 C436.09,241.965333 435.331667,243.273667 434.815,244.757 C434.298333,246.240333 434.04,247.798667 434.04,249.432 C434.04,251.032 434.29,252.565333 434.79,254.032 C435.29,255.498667 436.023333,256.790333 436.99,257.907 C437.956667,259.023667 439.156667,259.907 440.59,260.557 C442.023333,261.207 443.673333,261.532 445.54,261.532 Z M449.59,246.032 L440.04,246.032 C440.473333,244.632 441.181667,243.523667 442.165,242.707 C443.148333,241.890333 444.34,241.482 445.74,241.482 C446.906667,241.482 447.856667,241.832 448.59,242.532 C449.323333,243.232 449.69,244.115333 449.69,245.182 C449.69,245.382 449.681667,245.548667 449.665,245.682 C449.648333,245.815333 449.623333,245.932 449.59,246.032 L449.59,246.032 Z M485.14,260.932 L490.09,244.932 L495.04,260.932 L501.59,260.932 L509.94,237.932 L504.29,237.932 L498.29,255.582 L492.84,237.932 L487.34,237.932 L481.89,255.582 L475.89,237.932 L470.14,237.932 L478.49,260.932 L485.14,260.932 Z M516.79,234.082 C517.256667,234.082 517.706667,233.990333 518.14,233.807 C518.573333,233.623667 518.965,233.365333 519.315,233.032 C519.665,232.698667 519.94,232.323667 520.14,231.907 C520.34,231.490333 520.44,231.032 520.44,230.532 C520.44,230.065333 520.34,229.615333 520.14,229.182 C519.94,228.748667 519.665,228.357 519.315,228.007 C518.965,227.657 518.573333,227.382 518.14,227.182 C517.706667,226.982 517.256667,226.882 516.79,226.882 C516.29,226.882 515.831667,226.982 515.415,227.182 C514.998333,227.382 514.623333,227.657 514.29,228.007 C513.956667,228.357 513.698333,228.748667 513.515,229.182 C513.331667,229.615333 513.24,230.065333 513.24,230.532 C513.24,231.498667 513.59,232.332 514.29,233.032 C514.99,233.732 515.823333,234.082 516.79,234.082 Z M519.54,260.932 L519.54,237.932 L514.04,237.932 L514.04,260.932 L519.54,260.932 Z M532.44,261.532 C533.573333,261.532 534.715,261.373667 535.865,261.057 C537.015,260.740333 537.906667,260.315333 538.54,259.782 L538.54,259.782 L537.64,255.832 C536.806667,256.298667 536.173333,256.615333 535.74,256.782 C535.306667,256.948667 534.873333,257.032 534.44,257.032 C533.873333,257.032 533.49,256.857 533.29,256.507 C533.09,256.157 532.99,255.482 532.99,254.482 L532.99,254.482 L532.99,241.282 L537.39,241.282 L537.39,237.932 L532.99,237.932 L532.99,230.982 L528.79,230.982 L527.89,237.782 L524.64,238.282 L524.64,241.282 L527.49,241.282 L527.49,255.632 C527.49,256.532 527.556667,257.348667 527.69,258.082 C527.823333,258.815333 528.073333,259.440333 528.44,259.957 C528.806667,260.473667 529.315,260.865333 529.965,261.132 C530.615,261.398667 531.44,261.532 532.44,261.532 Z M548.54,260.932 L548.54,246.182 C548.773333,245.482 549.123333,244.848667 549.59,244.282 C550.056667,243.715333 550.59,243.232 551.19,242.832 C551.79,242.432 552.431667,242.132 553.115,241.932 C553.798333,241.732 554.456667,241.632 555.09,241.632 C556.123333,241.632 556.94,241.973667 557.54,242.657 C558.14,243.340333 558.44,244.365333 558.44,245.732 L558.44,245.732 L558.44,260.932 L563.94,260.932 L563.94,245.282 C563.94,243.782 563.731667,242.515333 563.315,241.482 C562.898333,240.448667 562.331667,239.615333 561.615,238.982 C560.898333,238.348667 560.073333,237.890333 559.14,237.607 C558.206667,237.323667 557.24,237.182 556.24,237.182 C554.54,237.182 553.065,237.507 551.815,238.157 C550.565,238.807 549.473333,239.865333 548.54,241.332 L548.54,241.332 L548.54,223.932 L543.04,223.932 L543.04,260.932 L548.54,260.932 Z M603.34,260.932 L603.34,255.932 L589.59,255.932 L589.59,227.932 L583.84,227.932 L583.84,260.932 L603.34,260.932 Z M618.14,261.532 C620.106667,261.532 621.815,261.215333 623.265,260.582 C624.715,259.948667 625.915,259.090333 626.865,258.007 C627.815,256.923667 628.515,255.657 628.965,254.207 C629.415,252.757 629.64,251.215333 629.64,249.582 C629.64,247.948667 629.415,246.390333 628.965,244.907 C628.515,243.423667 627.815,242.107 626.865,240.957 C625.915,239.807 624.706667,238.890333 623.24,238.207 C621.773333,237.523667 620.023333,237.182 617.99,237.182 C616.023333,237.182 614.306667,237.507 612.84,238.157 C611.373333,238.807 610.165,239.690333 609.215,240.807 C608.265,241.923667 607.556667,243.215333 607.09,244.682 C606.623333,246.148667 606.39,247.698667 606.39,249.332 C606.39,250.965333 606.623333,252.515333 607.09,253.982 C607.556667,255.448667 608.273333,256.740333 609.24,257.857 C610.206667,258.973667 611.423333,259.865333 612.89,260.532 C614.356667,261.198667 616.106667,261.532 618.14,261.532 Z M618.09,257.382 C617.09,257.382 616.223333,257.157 615.49,256.707 C614.756667,256.257 614.148333,255.648667 613.665,254.882 C613.181667,254.115333 612.831667,253.240333 612.615,252.257 C612.398333,251.273667 612.29,250.248667 612.29,249.182 C612.29,248.148667 612.398333,247.165333 612.615,246.232 C612.831667,245.298667 613.165,244.482 613.615,243.782 C614.065,243.082 614.64,242.523667 615.34,242.107 C616.04,241.690333 616.873333,241.482 617.84,241.482 C618.873333,241.482 619.756667,241.707 620.49,242.157 C621.223333,242.607 621.831667,243.207 622.315,243.957 C622.798333,244.707 623.156667,245.573667 623.39,246.557 C623.623333,247.540333 623.74,248.565333 623.74,249.632 C623.74,250.665333 623.631667,251.648667 623.415,252.582 C623.198333,253.515333 622.856667,254.340333 622.39,255.057 C621.923333,255.773667 621.331667,256.340333 620.615,256.757 C619.898333,257.173667 619.056667,257.382 618.09,257.382 Z M648.09,260.932 L657.59,237.932 L652.19,237.932 L644.94,256.382 L637.99,237.932 L632.24,237.932 L641.44,260.932 L648.09,260.932 Z M671.49,261.532 C672.49,261.532 673.448333,261.440333 674.365,261.257 C675.281667,261.073667 676.14,260.848667 676.94,260.582 C677.74,260.315333 678.456667,260.023667 679.09,259.707 C679.723333,259.390333 680.256667,259.098667 680.69,258.832 L680.69,258.832 L679.79,254.732 C678.823333,255.432 677.648333,256.015333 676.265,256.482 C674.881667,256.948667 673.573333,257.182 672.34,257.182 C671.24,257.182 670.281667,256.990333 669.465,256.607 C668.648333,256.223667 667.956667,255.707 667.39,255.057 C666.823333,254.407 666.39,253.640333 666.09,252.757 C665.79,251.873667 665.606667,250.932 665.54,249.932 L665.54,249.932 L680.09,249.932 C680.223333,249.732 680.348333,249.473667 680.465,249.157 C680.581667,248.840333 680.681667,248.482 680.765,248.082 C680.848333,247.682 680.915,247.273667 680.965,246.857 C681.015,246.440333 681.04,246.048667 681.04,245.682 C681.04,242.982 680.24,240.890333 678.64,239.407 C677.04,237.923667 674.773333,237.182 671.84,237.182 C669.94,237.182 668.248333,237.507 666.765,238.157 C665.281667,238.807 664.04,239.698667 663.04,240.832 C662.04,241.965333 661.281667,243.273667 660.765,244.757 C660.248333,246.240333 659.99,247.798667 659.99,249.432 C659.99,251.032 660.24,252.565333 660.74,254.032 C661.24,255.498667 661.973333,256.790333 662.94,257.907 C663.906667,259.023667 665.106667,259.907 666.54,260.557 C667.973333,261.207 669.623333,261.532 671.49,261.532 Z M675.54,246.032 L665.99,246.032 C666.423333,244.632 667.131667,243.523667 668.115,242.707 C669.098333,241.890333 670.29,241.482 671.69,241.482 C672.856667,241.482 673.806667,241.832 674.54,242.532 C675.273333,243.232 675.64,244.115333 675.64,245.182 C675.64,245.382 675.631667,245.548667 675.615,245.682 C675.598333,245.815333 675.573333,245.932 675.54,246.032 L675.54,246.032 Z M709.54,261.532 C711.74,261.532 713.69,261.182 715.39,260.482 C717.09,259.782 718.523333,258.848667 719.69,257.682 L719.69,257.682 L722.84,260.932 L729.04,260.932 L722.24,253.932 C722.906667,252.398667 723.24,250.815333 723.24,249.182 C723.24,247.082 722.706667,245.098667 721.64,243.232 L721.64,243.232 L728.84,242.682 L728.84,238.832 L714.34,240.682 L714.34,243.782 L716.79,243.632 C717.423333,244.532 717.865,245.423667 718.115,246.307 C718.365,247.190333 718.49,248.015333 718.49,248.782 C718.49,248.982 718.481667,249.182 718.465,249.382 C718.448333,249.582 718.423333,249.765333 718.39,249.932 L718.39,249.932 L709.79,241.032 C708.923333,240.132 708.19,239.257 707.59,238.407 C706.99,237.557 706.69,236.598667 706.69,235.532 C706.69,234.465333 706.965,233.665333 707.515,233.132 C708.065,232.598667 708.74,232.332 709.54,232.332 C709.973333,232.332 710.44,232.407 710.94,232.557 C711.44,232.707 711.931667,232.890333 712.415,233.107 C712.898333,233.323667 713.356667,233.573667 713.79,233.857 C714.223333,234.140333 714.59,234.415333 714.89,234.682 L714.89,234.682 L716.29,229.882 C715.156667,229.182 713.965,228.640333 712.715,228.257 C711.465,227.873667 710.273333,227.682 709.14,227.682 C708.14,227.682 707.19,227.840333 706.29,228.157 C705.39,228.473667 704.598333,228.948667 703.915,229.582 C703.231667,230.215333 702.698333,230.990333 702.315,231.907 C701.931667,232.823667 701.74,233.898667 701.74,235.132 C701.74,236.598667 702.006667,237.898667 702.54,239.032 C703.073333,240.165333 703.823333,241.298667 704.79,242.432 C703.69,242.898667 702.715,243.498667 701.865,244.232 C701.015,244.965333 700.315,245.765333 699.765,246.632 C699.215,247.498667 698.798333,248.407 698.515,249.357 C698.231667,250.307 698.09,251.232 698.09,252.132 C698.09,253.332 698.331667,254.498667 698.815,255.632 C699.298333,256.765333 700.023333,257.773667 700.99,258.657 C701.956667,259.540333 703.156667,260.240333 704.59,260.757 C706.023333,261.273667 707.673333,261.532 709.54,261.532 Z M709.99,256.732 C708.223333,256.732 706.765,256.298667 705.615,255.432 C704.465,254.565333 703.89,253.232 703.89,251.432 C703.89,250.798667 703.973333,250.165333 704.14,249.532 C704.306667,248.898667 704.556667,248.323667 704.89,247.807 C705.223333,247.290333 705.631667,246.832 706.115,246.432 C706.598333,246.032 707.156667,245.748667 707.79,245.582 L707.79,245.582 L716.29,254.232 C715.556667,254.998667 714.656667,255.607 713.59,256.057 C712.523333,256.507 711.323333,256.732 709.99,256.732 Z M753.09,260.932 L753.09,245.932 L762.54,245.932 L762.54,240.932 L753.09,240.932 L753.09,232.932 L766.19,232.932 L766.19,227.932 L747.34,227.932 L747.34,260.932 L753.09,260.932 Z M773.49,234.082 C773.956667,234.082 774.406667,233.990333 774.84,233.807 C775.273333,233.623667 775.665,233.365333 776.015,233.032 C776.365,232.698667 776.64,232.323667 776.84,231.907 C777.04,231.490333 777.14,231.032 777.14,230.532 C777.14,230.065333 777.04,229.615333 776.84,229.182 C776.64,228.748667 776.365,228.357 776.015,228.007 C775.665,227.657 775.273333,227.382 774.84,227.182 C774.406667,226.982 773.956667,226.882 773.49,226.882 C772.99,226.882 772.531667,226.982 772.115,227.182 C771.698333,227.382 771.323333,227.657 770.99,228.007 C770.656667,228.357 770.398333,228.748667 770.215,229.182 C770.031667,229.615333 769.94,230.065333 769.94,230.532 C769.94,231.498667 770.29,232.332 770.99,233.032 C771.69,233.732 772.523333,234.082 773.49,234.082 Z M776.24,260.932 L776.24,237.932 L770.74,237.932 L770.74,260.932 L776.24,260.932 Z M795.79,261.532 C797.356667,261.532 798.79,261.215333 800.09,260.582 C801.39,259.948667 802.498333,259.082 803.415,257.982 C804.331667,256.882 805.04,255.582 805.54,254.082 C806.04,252.582 806.29,250.948667 806.29,249.182 C806.29,247.615333 806.081667,246.107 805.665,244.657 C805.248333,243.207 804.606667,241.932 803.74,240.832 C802.873333,239.732 801.79,238.848667 800.49,238.182 C799.19,237.515333 797.673333,237.182 795.94,237.182 C794.34,237.182 792.906667,237.448667 791.64,237.982 C790.373333,238.515333 789.356667,239.265333 788.59,240.232 L788.59,240.232 L788.59,223.932 L783.14,223.932 L783.14,260.932 L787.54,260.932 L787.94,257.782 L788.14,257.782 C789.073333,258.815333 790.131667,259.698667 791.315,260.432 C792.498333,261.165333 793.99,261.532 795.79,261.532 Z M795.09,257.382 C794.556667,257.382 793.99,257.307 793.39,257.157 C792.79,257.007 792.198333,256.798667 791.615,256.532 C791.031667,256.265333 790.473333,255.940333 789.94,255.557 C789.406667,255.173667 788.956667,254.732 788.59,254.232 L788.59,254.232 L788.59,244.632 C789.59,243.398667 790.606667,242.557 791.64,242.107 C792.673333,241.657 793.673333,241.432 794.64,241.432 C795.673333,241.432 796.581667,241.640333 797.365,242.057 C798.148333,242.473667 798.798333,243.048667 799.315,243.782 C799.831667,244.515333 800.215,245.357 800.465,246.307 C800.715,247.257 800.84,248.248667 800.84,249.282 C800.84,250.282 800.723333,251.273667 800.49,252.257 C800.256667,253.240333 799.898333,254.107 799.415,254.857 C798.931667,255.607 798.331667,256.215333 797.615,256.682 C796.898333,257.148667 796.056667,257.382 795.09,257.382 Z M821.94,261.532 C822.94,261.532 823.898333,261.440333 824.815,261.257 C825.731667,261.073667 826.59,260.848667 827.39,260.582 C828.19,260.315333 828.906667,260.023667 829.54,259.707 C830.173333,259.390333 830.706667,259.098667 831.14,258.832 L831.14,258.832 L830.24,254.732 C829.273333,255.432 828.098333,256.015333 826.715,256.482 C825.331667,256.948667 824.023333,257.182 822.79,257.182 C821.69,257.182 820.731667,256.990333 819.915,256.607 C819.098333,256.223667 818.406667,255.707 817.84,255.057 C817.273333,254.407 816.84,253.640333 816.54,252.757 C816.24,251.873667 816.056667,250.932 815.99,249.932 L815.99,249.932 L830.54,249.932 C830.673333,249.732 830.798333,249.473667 830.915,249.157 C831.031667,248.840333 831.131667,248.482 831.215,248.082 C831.298333,247.682 831.365,247.273667 831.415,246.857 C831.465,246.440333 831.49,246.048667 831.49,245.682 C831.49,242.982 830.69,240.890333 829.09,239.407 C827.49,237.923667 825.223333,237.182 822.29,237.182 C820.39,237.182 818.698333,237.507 817.215,238.157 C815.731667,238.807 814.49,239.698667 813.49,240.832 C812.49,241.965333 811.731667,243.273667 811.215,244.757 C810.698333,246.240333 810.44,247.798667 810.44,249.432 C810.44,251.032 810.69,252.565333 811.19,254.032 C811.69,255.498667 812.423333,256.790333 813.39,257.907 C814.356667,259.023667 815.556667,259.907 816.99,260.557 C818.423333,261.207 820.073333,261.532 821.94,261.532 Z M825.99,246.032 L816.44,246.032 C816.873333,244.632 817.581667,243.523667 818.565,242.707 C819.548333,241.890333 820.74,241.482 822.14,241.482 C823.306667,241.482 824.256667,241.832 824.99,242.532 C825.723333,243.232 826.09,244.115333 826.09,245.182 C826.09,245.382 826.081667,245.548667 826.065,245.682 C826.048333,245.815333 826.023333,245.932 825.99,246.032 L825.99,246.032 Z M842.59,260.932 L842.59,247.582 C842.79,246.882 843.006667,246.198667 843.24,245.532 C843.473333,244.865333 843.756667,244.273667 844.09,243.757 C844.423333,243.240333 844.806667,242.823667 845.24,242.507 C845.673333,242.190333 846.223333,242.032 846.89,242.032 C847.39,242.032 847.99,242.115333 848.69,242.282 C849.39,242.448667 849.906667,242.665333 850.24,242.932 L850.24,242.932 L851.69,238.482 C850.523333,237.615333 849.273333,237.182 847.94,237.182 C847.106667,237.182 846.381667,237.340333 845.765,237.657 C845.148333,237.973667 844.606667,238.390333 844.14,238.907 C843.673333,239.423667 843.256667,240.015333 842.89,240.682 C842.523333,241.348667 842.173333,242.032 841.84,242.732 L841.84,242.732 L841.64,242.732 L841.39,237.932 L837.09,237.932 L837.09,260.932 L842.59,260.932 Z" id="MadewithLove&amp;Fiber" fill="#DF7224"></path>
        </g>
    </g>
</svg>